<?xml version="1.0" encoding="utf-8"?>
<!-- Generator: Adobe Illustrator 27.9.0, SVG Export Plug-In . SVG Version: 6.00 Build 0)  -->
<svg version="1.1" id="Layer_1" xmlns="http://www.w3.org/2000/svg" xmlns:xlink="http://www.w3.org/1999/xlink" x="0px" y="0px"
	 viewBox="0 0 512.33 187.92" style="enable-background:new 0 0 512.33 187.92;" xml:space="preserve">
<style type="text/css">
	.st0{fill:#1C75BC;}
	.st1{fill:#ED1C24;}
	.st2{fill:#39B54A;}
</style>
<g>
	<g>
		<path d="M512.08,154.17c0-0.04-0.01-0.08-0.01-0.12l-6.3-50.92c-0.01-0.05-0.01-0.1-0.02-0.15
			c-2.11-16.06-14.41-26.85-30.61-26.85h-11.06c-7.26,0-13.69,2.06-18.82,5.81c-5.13-3.75-11.56-5.81-18.82-5.81h-11.06
			c-11.39,0-20.85,5.34-26.2,14.1c-5.78-8.95-15.32-14.1-26.76-14.1h-7.57c-11.39,0-20.88,5.1-26.67,13.96
			c-7.41-8.03-19.7-13.95-39.88-13.95h-18.33c-8.46,0-15.79,2.98-21.12,8.02c-8.46-5.61-19.4-8.46-32.72-8.46
			c-12.22,0-23.14,3.54-31.93,9.74c-5.4-5.82-13.23-9.3-22.39-9.3h-4.17c-7.99,0-14.98,2.66-20.22,7.2
			c-8.18-4.46-19.21-7.2-34.01-7.2H89.66c-5.8,0-11.06,1.4-15.52,3.9c-4.46-2.5-9.72-3.9-15.52-3.9H30.2
			c-17.5,0-30.2,12.7-30.2,30.2v50.83c0,17.5,12.7,30.2,30.2,30.2h28.42c5.8,0,11.06-1.4,15.52-3.9c4.46,2.5,9.72,3.9,15.52,3.9
			h4.17c11.99,0,21.73-5.96,26.67-15.35c3.37-0.58,6.48-1.37,9.38-2.36c4.48,10.73,14.81,17.71,27.77,17.71h4.17
			c9.02,0,16.75-3.38,22.14-9.04c8.71,6.15,19.58,9.61,31.89,9.61c12.55,0,23.5-3.35,32.22-9.36c5.38,5.51,13.02,8.79,21.9,8.79
			h4.27c5.62,0,10.74-1.31,15.11-3.67c4.53,2.39,9.76,3.67,15.44,3.67h4.36c5.06,0,9.22-0.82,12.68-2.11
			c3.57,1.37,7.51,2.11,11.67,2.11h4.27c8.28,0,15.45-2.62,20.9-7.4c5.45,4.78,12.63,7.4,20.91,7.4h4.17
			c4.31,0,8.37-0.78,12.03-2.24c3.69,1.47,7.78,2.24,12.12,2.24h4.07c5.77,0,11.01-1.34,15.46-3.78c4.52,2.46,9.79,3.78,15.58,3.78
			h4.46c5.79,0,11.06-1.33,15.58-3.78c4.45,2.44,9.69,3.78,15.46,3.78h4.07c9.13,0,17.17-3.39,22.64-9.54
			C510.72,171.65,513.15,163.26,512.08,154.17z M103.53,132.29c-1.04,0-2.07,0.08-3.07,0.23v-15.39h2.97c0.03,0,0.06,0,0.1,0V132.29
			z M283.85,126.08c-1.04,0-2.07,0.09-3.07,0.24v-9.2h3.07V126.08z"/>
		<g>
			<g>
				<path class="st0" d="M20.5,157.15v-50.83c0-6.3,3.4-9.7,9.7-9.7h28.42c6.3,0,9.7,3.4,9.7,9.7v1.26c0,6.3-3.4,9.7-9.7,9.7H43.97
					v6.21h12.9c6.31,0,9.7,2.91,9.7,8.15v0.1c0,5.34-3.4,8.25-9.7,8.25h-12.9v6.31h14.65c6.3,0,9.7,3.39,9.7,9.7v1.16
					c0,6.31-3.4,9.7-9.7,9.7H30.2C23.9,166.85,20.5,163.46,20.5,157.15z"/>
			</g>
			<g>
				<path class="st0" d="M79.96,157.15v-50.83c0-6.3,3.4-9.7,9.7-9.7h13.77c27.55,0,35.31,10.19,35.31,28.42
					c0,18.24-7.76,27.74-35.02,27.74h-0.19v4.36c0,6.31-3.4,9.7-9.7,9.7h-4.17C83.35,166.85,79.96,163.46,79.96,157.15z M107.7,133
					c5.82,0,6.98-4.27,6.98-8.34c0-3.98-1.16-8.05-6.98-8.05h-4.17V133H107.7z"/>
			</g>
			<g>
				<path class="st0" d="M147.96,157.15v-50.83c0-6.3,3.4-9.7,9.7-9.7h4.17c6.3,0,9.7,3.4,9.7,9.7v50.83c0,6.31-3.4,9.7-9.7,9.7
					h-4.17C151.35,166.85,147.96,163.46,147.96,157.15z"/>
			</g>
			<g>
				<path class="st0" d="M182.2,131.55c0-21.44,13.77-35.36,33.95-35.36c12.32,0,21.44,2.76,26.77,10.23
					c4.07,5.72,2.04,9.31-4.95,11.16l-3.69,0.97c-5.04,1.36-8.05-0.49-11.45-2.13c-1.55-0.78-3.3-1.36-5.72-1.36
					c-6.89,0-11.15,6.6-11.15,16.78c0,10.18,4.17,16.39,10.96,16.39c4.27,0,7.37-2.72,8.15-7.27h-3.01c-5.53,0-8.63-2.91-8.63-8.15
					v-0.1c0-5.14,3.4-8.05,9.7-8.05h16.59c6.11,0,9.89,1.26,9.89,6.21v1.55c0,22.12-12.61,35.01-33.76,35.01
					C195.39,167.42,182.2,153.47,182.2,131.55z"/>
			</g>
			<g>
				<path class="st0" d="M316.44,155.41c3.54,7.45,1.46,11.44-7.28,11.44h-4.36c-5.63,0-9.18-2.53-11.06-7.76l-4.51-12.53
					c-0.46,0.01-0.93,0.01-1.4,0.01h-3.88v10.57c0,6.31-3.39,9.7-9.7,9.7h-4.27c-6.31,0-9.7-3.39-9.7-9.7v-50.83
					c0-6.3,3.39-9.7,9.7-9.7h18.33c24.64,0,30.07,10.19,30.07,24.44c0,7.27-2.54,14.58-8.99,19.49L316.44,155.41z M287.73,130.68
					c5.82,0,6.98-3.69,6.98-7.47c0-3.59-1.16-7.18-6.98-7.18h-3.88v14.65H287.73z"/>
			</g>
			<g>
				<path class="st0" d="M391.62,155.7c2.43,6.69-0.78,11.15-7.86,11.15h-4.17c-5.72,0-9.22-2.62-10.77-8.25l-0.21-0.78h-19.84
					l-0.21,0.78c-1.55,5.63-5.04,8.25-10.77,8.25h-4.27c-7.08,0-10.19-4.46-7.86-11.15l18.14-51.22c1.84-5.33,5.43-7.86,11.06-7.86
					h7.57c5.63,0,9.21,2.52,11.06,7.86L391.62,155.7L391.62,155.7z M364.19,141.92l-5.55-19.98l-5.5,19.98H364.19z"/>
			</g>
			<g>
				<path class="st0" d="M398.8,156.57l6.3-50.92c0.78-5.92,4.27-9.02,10.28-9.02h11.06c5.82,0,9.31,2.81,10.57,8.54l8.25,37.15
					l8.25-37.15c1.26-5.72,4.75-8.54,10.57-8.54h11.06c6.01,0,9.51,3.1,10.28,9.02l6.3,50.92c0.78,6.6-2.52,10.28-9.12,10.28h-4.07
					c-6.01,0-9.51-3.2-10.09-9.21l-3.01-30.55l-7.28,31.33c-1.36,5.63-4.85,8.44-10.67,8.44h-4.46c-5.82,0-9.31-2.81-10.67-8.44
					l-7.28-31.33l-3.01,30.55c-0.58,6.01-4.07,9.21-10.09,9.21h-4.07C401.32,166.85,398.02,163.17,398.8,156.57z"/>
			</g>
		</g>
		<g>
			<g>
				<path class="st0" d="M20.5,157.15v-50.83c0-6.3,3.4-9.7,9.7-9.7h28.42c6.3,0,9.7,3.4,9.7,9.7v1.26c0,6.3-3.4,9.7-9.7,9.7H43.97
					v6.21h12.9c6.31,0,9.7,2.91,9.7,8.15v0.1c0,5.34-3.4,8.25-9.7,8.25h-12.9v6.31h14.65c6.3,0,9.7,3.39,9.7,9.7v1.16
					c0,6.31-3.4,9.7-9.7,9.7H30.2C23.9,166.85,20.5,163.46,20.5,157.15z"/>
			</g>
			<g>
				<path class="st0" d="M79.96,157.15v-50.83c0-6.3,3.4-9.7,9.7-9.7h13.77c27.55,0,35.31,10.19,35.31,28.42
					c0,18.24-7.76,27.74-35.02,27.74h-0.19v4.36c0,6.31-3.4,9.7-9.7,9.7h-4.17C83.35,166.85,79.96,163.46,79.96,157.15z M107.7,133
					c5.82,0,6.98-4.27,6.98-8.34c0-3.98-1.16-8.05-6.98-8.05h-4.17V133H107.7z"/>
			</g>
			<g>
				<path class="st0" d="M147.96,157.15v-50.83c0-6.3,3.4-9.7,9.7-9.7h4.17c6.3,0,9.7,3.4,9.7,9.7v50.83c0,6.31-3.4,9.7-9.7,9.7
					h-4.17C151.35,166.85,147.96,163.46,147.96,157.15z"/>
			</g>
			<g>
				<path class="st0" d="M182.2,131.55c0-21.44,13.77-35.36,33.95-35.36c12.32,0,21.44,2.76,26.77,10.23
					c4.07,5.72,2.04,9.31-4.95,11.16l-3.69,0.97c-5.04,1.36-8.05-0.49-11.45-2.13c-1.55-0.78-3.3-1.36-5.72-1.36
					c-6.89,0-11.15,6.6-11.15,16.78c0,10.18,4.17,16.39,10.96,16.39c4.27,0,7.37-2.72,8.15-7.27h-3.01c-5.53,0-8.63-2.91-8.63-8.15
					v-0.1c0-5.14,3.4-8.05,9.7-8.05h16.59c6.11,0,9.89,1.26,9.89,6.21v1.55c0,22.12-12.61,35.01-33.76,35.01
					C195.39,167.42,182.2,153.47,182.2,131.55z"/>
			</g>
			<g>
				<path class="st0" d="M316.44,155.41c3.54,7.45,1.46,11.44-7.28,11.44h-4.36c-5.63,0-9.18-2.53-11.06-7.76l-4.51-12.53
					c-0.46,0.01-0.93,0.01-1.4,0.01h-3.88v10.57c0,6.31-3.39,9.7-9.7,9.7h-4.27c-6.31,0-9.7-3.39-9.7-9.7v-50.83
					c0-6.3,3.39-9.7,9.7-9.7h18.33c24.64,0,30.07,10.19,30.07,24.44c0,7.27-2.54,14.58-8.99,19.49L316.44,155.41z M287.73,130.68
					c5.82,0,6.98-3.69,6.98-7.47c0-3.59-1.16-7.18-6.98-7.18h-3.88v14.65H287.73z"/>
			</g>
			<g>
				<path class="st0" d="M391.62,155.7c2.43,6.69-0.78,11.15-7.86,11.15h-4.17c-5.72,0-9.22-2.62-10.77-8.25l-0.21-0.78h-19.84
					l-0.21,0.78c-1.55,5.63-5.04,8.25-10.77,8.25h-4.27c-7.08,0-10.19-4.46-7.86-11.15l18.14-51.22c1.84-5.33,5.43-7.86,11.06-7.86
					h7.57c5.63,0,9.21,2.52,11.06,7.86L391.62,155.7L391.62,155.7z M364.19,141.92l-5.55-19.98l-5.5,19.98H364.19z"/>
			</g>
			<g>
				<path class="st0" d="M398.8,156.57l6.3-50.92c0.78-5.92,4.27-9.02,10.28-9.02h11.06c5.82,0,9.31,2.81,10.57,8.54l8.25,37.15
					l8.25-37.15c1.26-5.72,4.75-8.54,10.57-8.54h11.06c6.01,0,9.51,3.1,10.28,9.02l6.3,50.92c0.78,6.6-2.52,10.28-9.12,10.28h-4.07
					c-6.01,0-9.51-3.2-10.09-9.21l-3.01-30.55l-7.28,31.33c-1.36,5.63-4.85,8.44-10.67,8.44h-4.46c-5.82,0-9.31-2.81-10.67-8.44
					l-7.28-31.33l-3.01,30.55c-0.58,6.01-4.07,9.21-10.09,9.21h-4.07C401.32,166.85,398.02,163.17,398.8,156.57z"/>
			</g>
		</g>
	</g>
	<g>
		<g>
			<path d="M218.2,16.93L218.2,16.93c-3.8,0-7.4,0.55-10.77,1.64c-3.18-1.02-6.85-1.64-11.07-1.64c-3.15,0-6.18,0.37-9.02,1.09
				c-0.94-0.21-1.91-0.38-2.89-0.5C180.5,7.08,170.31,0,157.72,0c-6.94,0-13.14,2.15-17.98,5.83c-0.98-0.09-1.97-0.15-2.99-0.15
				h-2.06c-4.43,0-8.51,0.92-12.09,2.6c-1.73-0.31-3.52-0.48-5.38-0.48h-16.41c-15.49,0-26.74,11.25-26.74,26.74v32.7
				c0,15.49,11.25,26.74,26.74,26.74h2.62c5.98,0,11.32-1.68,15.64-4.62c4.31,2.94,9.65,4.62,15.63,4.62h2.06
				c3.57,0,6.92-0.6,9.95-1.71c3.04,1.11,6.38,1.72,9.95,1.72h2.06c3.59,0,6.94-0.61,9.99-1.73c3.04,1.12,6.4,1.73,9.98,1.73h2
				c3.56,0,6.9-0.59,9.92-1.7c3.03,1.1,6.36,1.7,9.92,1.7h2c3.56,0,6.9-0.59,9.92-1.7c3.03,1.1,6.36,1.7,9.92,1.7h2
				c15.49,0,26.74-11.25,26.74-26.74V53.27C251.12,19.55,225.92,16.93,218.2,16.93z"/>
			<g>
				<g>
					<path class="st1" d="M94.57,67.25v-32.7c0-4.06,2.18-6.24,6.24-6.24h16.41c4.06,0,6.24,2.18,6.24,6.24v0.69
						c0,4.06-2.18,6.24-6.24,6.24h-7.55v5.93h6.37c4.06,0,6.24,2.12,6.24,5.93v0.06c0,3.87-2.18,5.99-6.24,5.99h-6.37v7.86
						c0,4.06-2.18,6.24-6.24,6.24h-2.62C96.76,73.49,94.57,71.3,94.57,67.25z"/>
				</g>
				<g>
					<path class="st1" d="M128.46,67.25V32.42c0-4.06,2.18-6.24,6.24-6.24h2.06c4.06,0,6.24,2.18,6.24,6.24v34.82
						c0,4.06-2.18,6.24-6.24,6.24h-2.06C130.64,73.49,128.46,71.3,128.46,67.25z"/>
				</g>
				<g>
					<path class="st1" d="M149.73,27.37c0-4.56,3.31-6.87,7.99-6.87c4.24,0,7.99,2.31,7.99,6.87c0,4.62-3.74,6.86-7.99,6.86
						C153.04,34.23,149.73,31.99,149.73,27.37z M150.42,67.25V44.03c0-4.06,2.18-6.24,6.24-6.24h2.06c4.06,0,6.24,2.18,6.24,6.24
						v23.22c0,4.06-2.18,6.24-6.24,6.24h-2.06C152.61,73.49,150.42,71.3,150.42,67.25z"/>
				</g>
				<g>
					<path class="st1" d="M218.2,37.43c8.8,0,12.42,4.35,12.42,15.83v13.98c0,4.06-2.18,6.24-6.24,6.24h-2
						c-4.06,0-6.24-2.18-6.24-6.24V54.76c0-4.37-0.87-5.74-3.68-5.74c-2.68,0-3.68,1.37-3.68,5.12v13.11c0,4.06-2.18,6.24-6.24,6.24
						h-2c-4.06,0-6.24-2.18-6.24-6.24V54.76c0-4.37-0.87-5.74-3.68-5.74c-2.75,0-3.68,1.44-3.68,5.74v12.48
						c0,4.06-2.18,6.24-6.24,6.24h-2c-4.06,0-6.24-2.18-6.24-6.24V44.03c0-4.06,2.18-6.24,6.24-6.24h2c3.43,0,5.52,1.34,6.08,3.94
						c1.47-2.77,5.1-4.3,9.58-4.3c5.37,0,8.43,1.69,10.48,5.8C208.46,41.24,211.52,37.43,218.2,37.43L218.2,37.43z"/>
				</g>
			</g>
		</g>
		<g>
			<path d="M403.56,16.93L403.56,16.93c-3.8,0-7.4,0.55-10.77,1.64c-3.18-1.03-6.85-1.64-11.07-1.64c-3.15,0-6.18,0.37-9.02,1.09
				c-2.12-0.48-4.34-0.74-6.64-0.74h-2c-3.59,0-6.95,0.61-9.99,1.73c-3.04-1.12-6.39-1.72-9.98-1.72h-2c-2.46,0-4.82,0.28-7.05,0.81
				c-2.78-0.77-5.7-1.18-8.68-1.18c-1.43,0-2.83,0.09-4.2,0.24c-4.65-7.09-12.69-11.49-22.38-11.49h-2.06
				c-4.43,0-8.51,0.92-12.09,2.6c-1.73-0.31-3.52-0.48-5.38-0.48h-16.41c-15.49,0-26.74,11.25-26.74,26.74v32.7
				c0,15.49,11.25,26.74,26.74,26.74h2.62c5.98,0,11.33-1.68,15.64-4.62c4.31,2.94,9.65,4.62,15.63,4.62h2.06
				c4.48,0,8.6-0.95,12.2-2.66c4.3,1.96,9.13,3.02,14.38,3.02c3.08,0,6.07-0.41,8.91-1.18c2.16,0.49,4.45,0.75,6.82,0.75h2
				c3.55,0,6.88-0.6,9.9-1.7c3.07,1.14,6.45,1.76,10.07,1.76h2c3.56,0,6.9-0.59,9.92-1.7c3.03,1.1,6.36,1.7,9.92,1.7h2
				c3.56,0,6.9-0.59,9.92-1.7c3.03,1.1,6.36,1.7,9.92,1.7h2c15.49,0,26.74-11.25,26.74-26.74V53.27
				C436.47,19.55,411.28,16.93,403.56,16.93z"/>
			<g>
				<g>
					<path class="st2" d="M257.59,67.25v-32.7c0-4.06,2.18-6.24,6.24-6.24h16.41c4.06,0,6.24,2.18,6.24,6.24v0.69
						c0,4.06-2.18,6.24-6.24,6.24h-7.55v5.93h6.37c4.06,0,6.24,2.12,6.24,5.93v0.06c0,3.87-2.18,5.99-6.24,5.99h-6.37v7.86
						c0,4.06-2.18,6.24-6.24,6.24h-2.62C259.77,73.49,257.59,71.3,257.59,67.25z"/>
				</g>
				<g>
					<path class="st2" d="M291.47,67.25V32.42c0-4.06,2.18-6.24,6.24-6.24h2.06c4.06,0,6.24,2.18,6.24,6.24v34.82
						c0,4.06-2.18,6.24-6.24,6.24h-2.06C293.66,73.49,291.47,71.3,291.47,67.25z"/>
				</g>
				<g>
					<path class="st2" d="M312.25,55.64c0-11.36,5.12-18.2,14.1-18.2c3.74,0,8.05,1.92,9.49,5.16v-0.12c0-2.93,2.31-4.67,6.24-4.67
						h2c4.06,0,6.24,2.18,6.24,6.23v23.15c0,4.06-2.18,6.24-6.24,6.24h-2c-3.87,0-6.24-1.69-6.24-4.43v-0.06
						c-1.44,3.12-5.74,4.92-9.49,4.92C317.43,73.86,312.25,66.93,312.25,55.64z M336.34,55.58c0-4.12-1.87-6.8-4.81-6.8
						c-2.87,0-4.87,2.75-4.87,6.8c0,4.12,1.93,6.86,4.87,6.86S336.34,59.76,336.34,55.58z"/>
				</g>
				<g>
					<path class="st2" d="M403.56,37.43c8.8,0,12.42,4.35,12.42,15.83v13.98c0,4.06-2.18,6.24-6.24,6.24h-2
						c-4.06,0-6.24-2.18-6.24-6.24V54.76c0-4.37-0.87-5.74-3.68-5.74c-2.68,0-3.68,1.37-3.68,5.12v13.11c0,4.06-2.18,6.24-6.24,6.24
						h-2c-4.06,0-6.24-2.18-6.24-6.24V54.76c0-4.37-0.87-5.74-3.68-5.74c-2.75,0-3.68,1.44-3.68,5.74v12.48
						c0,4.06-2.18,6.24-6.24,6.24h-2c-4.06,0-6.24-2.18-6.24-6.24V44.03c0-4.06,2.18-6.24,6.24-6.24h2c3.43,0,5.52,1.34,6.08,3.94
						c1.47-2.77,5.1-4.3,9.58-4.3c5.37,0,8.42,1.69,10.48,5.8C393.82,41.24,396.88,37.43,403.56,37.43L403.56,37.43z"/>
				</g>
			</g>
		</g>
	</g>
</g>
</svg>
